<svg xmlns="http://www.w3.org/2000/svg" viewBox="0 0 100 130" width="200" height="260">
  <!-- Body -->
  <ellipse cx="50" cy="52" rx="36" ry="40" fill="#6B73FF"/>

  <!-- Eyes -->
  <circle cx="38" cy="44" r="7" fill="white"/>
  <circle cx="62" cy="44" r="7" fill="white"/>
  <!-- Pupils (slightly down-center = relaxed idle look) -->
  <circle id="lp" cx="39.5" cy="45.5" r="3.5" fill="#1a1a2e"/>
  <circle id="rp" cx="63.5" cy="45.5" r="3.5" fill="#1a1a2e"/>
  <!-- Eye shine -->
  <circle cx="41" cy="43.5" r="1.2" fill="white"/>
  <circle cx="65" cy="43.5" r="1.2" fill="white"/>

  <!-- Smile -->
  <path d="M 40 65 Q 50 74 60 65" stroke="white" stroke-width="2.5" fill="none" stroke-linecap="round"/>

  <!-- Tentacles (4, gently curled) -->
  <path d="M 24 82 Q 17 97 24 93 Q 18 110 26 108" stroke="#5560DD" stroke-width="9" fill="none" stroke-linecap="round"/>
  <path d="M 38 90 Q 33 107 39 103 Q 34 120 42 118" stroke="#5560DD" stroke-width="9" fill="none" stroke-linecap="round"/>
  <path d="M 62 90 Q 67 107 61 103 Q 66 120 58 118" stroke="#5560DD" stroke-width="9" fill="none" stroke-linecap="round"/>
  <path d="M 76 82 Q 83 97 76 93 Q 82 110 74 108" stroke="#5560DD" stroke-width="9" fill="none" stroke-linecap="round"/>
</svg>
