<svg xmlns="http://www.w3.org/2000/svg" viewBox="-15 -25 45 45" width="500" height="500">
  <defs>
    
  </defs>

  
  <rect class="shadow-react" x="3" y="15" width="9" height="1" fill="#000" opacity="0.5"></rect>

  
  <g fill="#DE886D">
    <rect x="3" y="11" width="1" height="4"></rect>
    <rect x="5" y="11" width="1" height="4"></rect>
    <rect x="9" y="11" width="1" height="4"></rect>
    <rect x="11" y="11" width="1" height="4"></rect>
  </g>

  
  <g class="body-react">
    
    <g fill="#DE886D">
      <rect x="2" y="6" width="11" height="7"></rect>
    </g>
    
    <g fill="#DE886D">
      <g class="arm-l-react"><rect x="0" y="9" width="2" height="2"></rect></g>
      <rect x="13" y="9" width="2" height="2"></rect>
    </g>
    
    <g class="eyes-react" fill="#000">
      <rect x="4" y="8" width="1" height="2"></rect>
      <rect x="10" y="8" width="1" height="2"></rect>
    </g>
    
    <g class="qmark" fill="#5C9CE6">
      <rect x="7" y="-5" width="2" height="1"></rect>
      <rect x="6" y="-4" width="1" height="1"></rect>
      <rect x="9" y="-4" width="1" height="2"></rect>
      <rect x="8" y="-2" width="1" height="1"></rect>
      <rect x="7" y="-1" width="1" height="1"></rect>
      <rect x="7" y="1" width="1" height="1"></rect>
    </g>
    
    <g class="sigh-cloud" fill="#FFF">
      <rect x="14" y="9" width="2" height="1"></rect>
      <rect x="15" y="8" width="2" height="1"></rect>
      <rect x="16" y="7" width="2" height="1"></rect>
    </g>
  </g>
</svg>