<svg xmlns="http://www.w3.org/2000/svg" viewBox="-15 -25 45 45" width="500" height="500">
  <defs>
    
  </defs>

  
  <g transform="translate(-3, -7)">
    <g class="think-bubble">
      <g fill="#FFFFFF" opacity="0.9">
        <rect class="bubble-main" x="2" y="1" width="8" height="7"></rect>
        <rect class="bubble-h" x="1" y="2" width="10" height="5"></rect>
        <rect class="bubble-v" x="3" y="0" width="6" height="9"></rect>
        <rect x="8" y="7" width="2" height="2"></rect>
        <rect x="10" y="9" width="1" height="1"></rect>
      </g>
      <g fill="#0082FC">
        <rect class="dot d1" x="2.5" y="4" width="1" height="1"></rect>
        <rect class="dot d2" x="5.5" y="4" width="1" height="1"></rect>
        <rect class="dot d3" x="8.5" y="4" width="1" height="1"></rect>
      </g>
    </g>
  </g>

  
  <g transform="translate(15, 0) scale(-1, 1)">
    <rect class="shadow-think" x="3" y="15" width="9" height="1" fill="#000000" opacity="0.5"></rect>

    <g class="body-master">
      <g class="breathe">
        <g fill="#DE886D">
          <rect x="3" y="13" width="1" height="2"></rect>
          <rect x="5" y="13" width="1" height="2"></rect>
          <rect x="9" y="13" width="1" height="2"></rect>
          <rect x="11" y="13" width="1" height="2"></rect>
          <rect id="torso" x="2" y="6" width="11" height="7"></rect>
          <g class="arm-l">
            <rect x="0" y="9" width="3" height="2"></rect>
          </g>
          <g class="arm-r">
            <rect x="13" y="9" width="2" height="2"></rect>
          </g>
        </g>
        <g class="eyes-think" fill="#000000">
          <rect x="5" y="7" width="1" height="2"></rect>
          <rect x="11" y="7" width="1" height="2"></rect>
        </g>
      </g>
    </g>
  </g>
</svg>